<?xml version="1.0" encoding="UTF-8" standalone="no"?>
<svg
   xmlns:dc="http://purl.org/dc/elements/1.1/"
   xmlns:cc="http://creativecommons.org/ns#"
   xmlns:rdf="http://www.w3.org/1999/02/22-rdf-syntax-ns#"
   xmlns:svg="http://www.w3.org/2000/svg"
   xmlns="http://www.w3.org/2000/svg"
   xmlns:sodipodi="http://sodipodi.sourceforge.net/DTD/sodipodi-0.dtd"
   xmlns:inkscape="http://www.inkscape.org/namespaces/inkscape"
   viewBox="0 0 206.79976 207.01501"
   version="1.1"
   id="svg15"
   sodipodi:docname="ptb_stats_no_background.svg"
   inkscape:version="0.92.4 (5da689c313, 2019-01-14)"
   inkscape:export-filename="C:\Users\Hinrich Mahler\Desktop\ptb_stats_round.png"
   inkscape:export-xdpi="400"
   inkscape:export-ydpi="400"
   width="206.79976"
   height="207.01501">
  <metadata
     id="metadata19">
    <rdf:RDF>
      <cc:Work
         rdf:about="">
        <dc:format>image/svg+xml</dc:format>
        <dc:type
           rdf:resource="http://purl.org/dc/dcmitype/StillImage" />
        <dc:title></dc:title>
      </cc:Work>
    </rdf:RDF>
  </metadata>
  <sodipodi:namedview
     pagecolor="#ffffff"
     bordercolor="#666666"
     borderopacity="1"
     objecttolerance="10"
     gridtolerance="10"
     guidetolerance="10"
     inkscape:pageopacity="0"
     inkscape:pageshadow="2"
     inkscape:window-width="1858"
     inkscape:window-height="1057"
     id="namedview17"
     showgrid="false"
     inkscape:zoom="2"
     inkscape:cx="27.433448"
     inkscape:cy="105.99399"
     inkscape:window-x="1672"
     inkscape:window-y="-8"
     inkscape:window-maximized="1"
     inkscape:current-layer="svg15" />
  <defs
     id="defs7">
    <linearGradient
       id="a"
       x1="46.099998"
       x2="28.799999"
       y1="11.5"
       y2="51.900002"
       gradientUnits="userSpaceOnUse"
       gradientTransform="scale(3.47)">
      <stop
         stop-color="#37aee2"
         offset="0"
         id="stop2" />
      <stop
         stop-color="#1e96c8"
         offset="1"
         id="stop4" />
    </linearGradient>
    <linearGradient
       id="a-4"
       gradientTransform="matrix(-127.935,298.49794,-298.49794,-127.935,341.31131,85.437068)"
       gradientUnits="userSpaceOnUse"
       x1="0"
       x2="1"
       y1="0"
       y2="0">
      <stop
         offset="0"
         stop-color="#37aee2"
         id="stop2-7" />
      <stop
         offset="1"
         stop-color="#1e96c8"
         id="stop4-2" />
    </linearGradient>
    <linearGradient
       id="a-5"
       x1="46.099998"
       x2="28.799999"
       y1="11.5"
       y2="51.900002"
       gradientUnits="userSpaceOnUse"
       gradientTransform="matrix(3.47,0,0,3.47,315.16421,-2.347815)">
      <stop
         stop-color="#37aee2"
         offset="0"
         id="stop2-75" />
      <stop
         stop-color="#1e96c8"
         offset="1"
         id="stop4-25" />
    </linearGradient>
    <linearGradient
       id="a-5-6"
       x1="46.099998"
       x2="28.799999"
       y1="11.5"
       y2="51.900002"
       gradientUnits="userSpaceOnUse"
       gradientTransform="matrix(3.47,0,0,3.47,-0.0619927,-0.06199856)">
      <stop
         stop-color="#37aee2"
         offset="0"
         id="stop2-75-0" />
      <stop
         stop-color="#1e96c8"
         offset="1"
         id="stop4-25-3" />
    </linearGradient>
    <linearGradient
       id="a-5-5"
       x1="46.099998"
       x2="28.799999"
       y1="11.5"
       y2="51.900002"
       gradientUnits="userSpaceOnUse"
       gradientTransform="matrix(3.47,0,0,3.47,-0.06198181,-0.06199016)">
      <stop
         stop-color="#37aee2"
         offset="0"
         id="stop2-75-4" />
      <stop
         stop-color="#1e96c8"
         offset="1"
         id="stop4-25-1" />
    </linearGradient>
  </defs>
  <path
     inkscape:connector-curvature="0"
     style="fill:#1e96c8;fill-opacity:1;stroke:#37aee2;stroke-width:5;stroke-miterlimit:4;stroke-dasharray:none;stroke-opacity:1;paint-order:stroke markers fill"
     d="m 107.60376,2.5 c -2.32186,0 -4.20428,1.882406 -4.20428,4.204277 v 92.491324 c 0,2.321869 1.88242,4.204269 4.20428,4.204269 h 92.49133 c 2.32188,0 4.20428,-1.8824 4.20428,-4.204269 C 204.23867,45.817021 160.98195,2.560303 107.60376,2.5 Z"
     id="path970-0" />
  <path
     inkscape:connector-curvature="0"
     style="fill:#37aee2;fill-opacity:1;stroke:#1e96c8;stroke-width:5;stroke-miterlimit:4;stroke-dasharray:none;stroke-opacity:1;paint-order:stroke markers fill"
     d="M 152.96636,180.69677 94.991338,106.16594 V 15.112435 c 0,-2.321871 -1.8824,-4.204276 -4.20428,-4.204276 C 42.103055,10.908159 2.5,54.286661 2.5,107.60336 c 0.06032,53.3786 43.317015,96.63531 96.695218,96.6956 19.380972,1.50601 38.544782,-4.90701 53.115302,-17.77525 1.7606,-1.44412 2.05149,-4.02731 0.65584,-5.82694 z"
     id="path972-4" />
  <path
     inkscape:connector-curvature="0"
     style="fill:#289fd2;fill-opacity:1;stroke:#1e96c8;stroke-width:5;stroke-miterlimit:4;stroke-dasharray:none;stroke-opacity:1;paint-order:stroke markers fill"
     d="m 200.09469,111.80764 h -84.08277 c -2.32187,3.9e-4 -4.20388,1.8832 -4.20309,4.20506 0,0.96052 0.3291,1.89188 0.93253,2.63916 l 54.65402,67.66138 c 0.73309,0.90967 1.81146,1.4729 2.97654,1.55567 h 0.29442 c 1.06378,7.9e-4 2.08853,-0.40203 2.86735,-1.12685 19.58475,-18.31523 30.72035,-43.9161 30.76607,-70.73053 -7.9e-4,-2.32148 -1.88279,-4.20389 -4.20507,-4.20389 z"
     id="path974-7" />
  <path
     style="fill:#ffffff;stroke-width:3.47000003"
     d="m 94.991678,76.82588 c -21.283755,8.756771 -42.265907,17.624511 -60.929691,26.39648 -14.227,5.205 -5.898437,10.41016 -5.898437,10.41016 l 22.554687,6.93945 c 10.41,3.123 15.960938,-0.3457 15.960938,-0.3457 l 28.312503,-19.21289 z m 4.94726,35.70117 -12.09179,11.51563 c -5.552004,4.858 -2.77666,9.02151 -0.34766,11.10351 8.675,7.634 33.313172,23.25002 34.701172,24.29102 1.735,1.388 11.10361,7.63409 17.34961,6.24609 0.49735,-0.11052 0.94756,-0.27612 1.37695,-0.46289 z"
     id="path11"
     inkscape:connector-curvature="0" />
  <g
     id="g982"
     transform="matrix(0.32866316,0,0,0.32866316,262.79261,-64.511294)" />
  <g
     id="g984"
     transform="matrix(0.32866316,0,0,0.32866316,262.79261,-64.511294)" />
  <g
     id="g986"
     transform="matrix(0.32866316,0,0,0.32866316,262.79261,-64.511294)" />
  <g
     id="g988"
     transform="matrix(0.32866316,0,0,0.32866316,262.79261,-64.511294)" />
  <g
     id="g990"
     transform="matrix(0.32866316,0,0,0.32866316,262.79261,-64.511294)" />
  <g
     id="g992"
     transform="matrix(0.32866316,0,0,0.32866316,262.79261,-64.511294)" />
  <g
     id="g994"
     transform="matrix(0.32866316,0,0,0.32866316,262.79261,-64.511294)" />
  <g
     id="g996"
     transform="matrix(0.32866316,0,0,0.32866316,262.79261,-64.511294)" />
  <g
     id="g998"
     transform="matrix(0.32866316,0,0,0.32866316,262.79261,-64.511294)" />
  <g
     id="g1000"
     transform="matrix(0.32866316,0,0,0.32866316,262.79261,-64.511294)" />
  <g
     id="g1002"
     transform="matrix(0.32866316,0,0,0.32866316,262.79261,-64.511294)" />
  <g
     id="g1004"
     transform="matrix(0.32866316,0,0,0.32866316,262.79261,-64.511294)" />
  <g
     id="g1006"
     transform="matrix(0.32866316,0,0,0.32866316,262.79261,-64.511294)" />
  <g
     id="g1008"
     transform="matrix(0.32866316,0,0,0.32866316,262.79261,-64.511294)" />
  <g
     id="g1010"
     transform="matrix(0.32866316,0,0,0.32866316,262.79261,-64.511294)" />
  <path
     style="fill:#ffffff;stroke-width:3.47000003"
     d="m 116.01121,111.8083 c -2.32187,3.9e-4 -4.20392,1.88322 -4.20313,4.20508 0,0.96052 0.33017,1.89139 0.9336,2.63867 l 33,40.85352 c 0.61831,-1.75642 0.74804,-3.19141 0.74804,-3.19141 l 6.80274,-44.50586 z"
     id="path11-9"
     inkscape:connector-curvature="0" />
  <path
     style="fill:#ffffff;stroke-width:3.47000003"
     d="m 154.25926,53.654005 c -2.60276,0.05812 -4.99415,0.988282 -4.99415,0.988282 -14.80226,6.111025 -30.34444,12.383761 -45.86523,18.730468 v 21.935546 l 11.85938,-8.04687 c 17.34999,-11.798005 13.18743,-2.08197 9.02343,2.08203 L 109.52293,103.4001 h 45.05468 l 0.24024,-1.56641 c 2.429,-18.390998 5.55144,-35.39395 5.89844,-40.25195 0.58556,-6.636375 -3.11064,-8.002455 -6.45703,-7.927735 z"
     id="path11-9-8"
     inkscape:connector-curvature="0" />
</svg>
