<?xml version="1.0" encoding="UTF-8" standalone="no"?>
<svg
   xmlns:dc="http://purl.org/dc/elements/1.1/"
   xmlns:cc="http://creativecommons.org/ns#"
   xmlns:rdf="http://www.w3.org/1999/02/22-rdf-syntax-ns#"
   xmlns:svg="http://www.w3.org/2000/svg"
   xmlns="http://www.w3.org/2000/svg"
   xmlns:sodipodi="http://sodipodi.sourceforge.net/DTD/sodipodi-0.dtd"
   xmlns:inkscape="http://www.inkscape.org/namespaces/inkscape"
   viewBox="0 0 240 240"
   version="1.1"
   id="svg15"
   sodipodi:docname="ptb_stats_round.svg"
   inkscape:version="0.92.4 (5da689c313, 2019-01-14)"
   inkscape:export-filename="C:\Users\Hinrich Mahler\Desktop\ptb_stats_round.png"
   inkscape:export-xdpi="400"
   inkscape:export-ydpi="400">
  <metadata
     id="metadata19">
    <rdf:RDF>
      <cc:Work
         rdf:about="">
        <dc:format>image/svg+xml</dc:format>
        <dc:type
           rdf:resource="http://purl.org/dc/dcmitype/StillImage" />
        <dc:title />
      </cc:Work>
    </rdf:RDF>
  </metadata>
  <sodipodi:namedview
     pagecolor="#ffffff"
     bordercolor="#666666"
     borderopacity="1"
     objecttolerance="10"
     gridtolerance="10"
     guidetolerance="10"
     inkscape:pageopacity="0"
     inkscape:pageshadow="2"
     inkscape:window-width="1858"
     inkscape:window-height="1057"
     id="namedview17"
     showgrid="false"
     inkscape:zoom="2"
     inkscape:cx="153.28357"
     inkscape:cy="122.4865"
     inkscape:window-x="1672"
     inkscape:window-y="-8"
     inkscape:window-maximized="1"
     inkscape:current-layer="svg15" />
  <defs
     id="defs7">
    <linearGradient
       id="a"
       x1="46.1"
       x2="28.8"
       y1="11.5"
       y2="51.9"
       gradientUnits="userSpaceOnUse"
       gradientTransform="scale(3.47)">
      <stop
         stop-color="#37aee2"
         offset="0"
         id="stop2" />
      <stop
         stop-color="#1e96c8"
         offset="1"
         id="stop4" />
    </linearGradient>
    <linearGradient
       id="a-4"
       gradientTransform="matrix(-127.935,298.49794,-298.49794,-127.935,341.31131,85.437068)"
       gradientUnits="userSpaceOnUse"
       x1="0"
       x2="1"
       y1="0"
       y2="0">
      <stop
         offset="0"
         stop-color="#37aee2"
         id="stop2-7" />
      <stop
         offset="1"
         stop-color="#1e96c8"
         id="stop4-2" />
    </linearGradient>
    <linearGradient
       id="a-5"
       x1="46.099998"
       x2="28.799999"
       y1="11.5"
       y2="51.900002"
       gradientUnits="userSpaceOnUse"
       gradientTransform="matrix(3.47,0,0,3.47,315.16421,-2.347815)">
      <stop
         stop-color="#37aee2"
         offset="0"
         id="stop2-75" />
      <stop
         stop-color="#1e96c8"
         offset="1"
         id="stop4-25" />
    </linearGradient>
    <linearGradient
       id="a-5-6"
       x1="46.099998"
       x2="28.799999"
       y1="11.5"
       y2="51.900002"
       gradientUnits="userSpaceOnUse"
       gradientTransform="matrix(3.47,0,0,3.47,-0.0619927,-0.06199856)">
      <stop
         stop-color="#37aee2"
         offset="0"
         id="stop2-75-0" />
      <stop
         stop-color="#1e96c8"
         offset="1"
         id="stop4-25-3" />
    </linearGradient>
    <linearGradient
       id="a-5-5"
       x1="46.099998"
       x2="28.799999"
       y1="11.5"
       y2="51.900002"
       gradientUnits="userSpaceOnUse"
       gradientTransform="matrix(3.47,0,0,3.47,-0.06198181,-0.06199016)">
      <stop
         stop-color="#37aee2"
         offset="0"
         id="stop2-75-4" />
      <stop
         stop-color="#1e96c8"
         offset="1"
         id="stop4-25-1" />
    </linearGradient>
  </defs>
  <circle
     style="fill:url(#a-5-5);stroke-width:3.47000003"
     id="circle9-6-3"
     r="120.062"
     cx="120"
     cy="120" />
  <path
     inkscape:connector-curvature="0"
     style="fill:#1e96c8;stroke-width:5;fill-opacity:1;stroke:#37aee2;stroke-opacity:1;stroke-miterlimit:4;stroke-dasharray:none;paint-order:stroke markers fill"
     d="m 124.20388,18.992479 c -2.32186,0 -4.20428,1.882406 -4.20428,4.204277 v 92.491324 c 0,2.32187 1.88242,4.20427 4.20428,4.20427 h 92.49133 c 2.32188,0 4.20428,-1.8824 4.20428,-4.20427 -0.0607,-53.37858 -43.31742,-96.635298 -96.69561,-96.695601 z"
     id="path970-0" />
  <path
     inkscape:connector-curvature="0"
     style="fill:#37aee2;stroke:#1e96c8;stroke-width:5;fill-opacity:1;stroke-opacity:1;stroke-miterlimit:4;stroke-dasharray:none;paint-order:stroke markers fill"
     d="M 169.56648,197.18925 111.59146,122.65842 V 31.604914 c 0,-2.321871 -1.8824,-4.204276 -4.20428,-4.204276 -48.684003,0 -88.287058,43.378502 -88.287058,96.695202 0.06032,53.3786 43.317015,96.63531 96.695218,96.6956 19.38097,1.50601 38.54478,-4.90701 53.1153,-17.77525 1.7606,-1.44412 2.05149,-4.02731 0.65584,-5.82694 z"
     id="path972-4" />
  <path
     inkscape:connector-curvature="0"
     style="fill:#289fd2;stroke-width:5;fill-opacity:1;stroke:#1e96c8;stroke-opacity:1;stroke-miterlimit:4;stroke-dasharray:none;paint-order:stroke markers fill"
     d="m 216.69481,128.30012 h -84.08277 c -2.32187,3.9e-4 -4.20388,1.8832 -4.20309,4.20506 0,0.96052 0.3291,1.89188 0.93253,2.63916 l 54.65402,67.66138 c 0.73309,0.90967 1.81146,1.4729 2.97654,1.55567 h 0.29442 c 1.06378,7.9e-4 2.08853,-0.40203 2.86735,-1.12685 19.58475,-18.31523 30.72035,-43.9161 30.76607,-70.73053 -7.9e-4,-2.32148 -1.88279,-4.20389 -4.20507,-4.20389 z"
     id="path974-7" />
  <path
     style="fill:#ffffff;stroke-width:3.47000003"
     d="M 111.5918 93.318359 C 90.308045 102.07513 69.325893 110.94287 50.662109 119.71484 C 36.435109 124.91984 44.763672 130.125 44.763672 130.125 L 67.318359 137.06445 C 77.728359 140.18745 83.279297 136.71875 83.279297 136.71875 L 111.5918 117.50586 L 111.5918 93.318359 z M 116.53906 129.01953 L 104.44727 140.53516 C 98.895266 145.39316 101.67061 149.55667 104.09961 151.63867 C 112.77461 159.27267 137.41278 174.88869 138.80078 175.92969 C 140.53578 177.31769 149.90439 183.56378 156.15039 182.17578 C 156.64774 182.06526 157.09795 181.89966 157.52734 181.71289 L 116.53906 129.01953 z "
     id="path11" />
  <g
     id="g982"
     transform="matrix(0.32866316,0,0,0.32866316,279.39273,-48.018815)" />
  <g
     id="g984"
     transform="matrix(0.32866316,0,0,0.32866316,279.39273,-48.018815)" />
  <g
     id="g986"
     transform="matrix(0.32866316,0,0,0.32866316,279.39273,-48.018815)" />
  <g
     id="g988"
     transform="matrix(0.32866316,0,0,0.32866316,279.39273,-48.018815)" />
  <g
     id="g990"
     transform="matrix(0.32866316,0,0,0.32866316,279.39273,-48.018815)" />
  <g
     id="g992"
     transform="matrix(0.32866316,0,0,0.32866316,279.39273,-48.018815)" />
  <g
     id="g994"
     transform="matrix(0.32866316,0,0,0.32866316,279.39273,-48.018815)" />
  <g
     id="g996"
     transform="matrix(0.32866316,0,0,0.32866316,279.39273,-48.018815)" />
  <g
     id="g998"
     transform="matrix(0.32866316,0,0,0.32866316,279.39273,-48.018815)" />
  <g
     id="g1000"
     transform="matrix(0.32866316,0,0,0.32866316,279.39273,-48.018815)" />
  <g
     id="g1002"
     transform="matrix(0.32866316,0,0,0.32866316,279.39273,-48.018815)" />
  <g
     id="g1004"
     transform="matrix(0.32866316,0,0,0.32866316,279.39273,-48.018815)" />
  <g
     id="g1006"
     transform="matrix(0.32866316,0,0,0.32866316,279.39273,-48.018815)" />
  <g
     id="g1008"
     transform="matrix(0.32866316,0,0,0.32866316,279.39273,-48.018815)" />
  <g
     id="g1010"
     transform="matrix(0.32866316,0,0,0.32866316,279.39273,-48.018815)" />
  <path
     style="fill:#ffffff;stroke-width:3.47000003"
     d="M 132.61133 128.30078 C 130.28946 128.30117 128.40741 130.184 128.4082 132.50586 C 128.4082 133.46638 128.73837 134.39725 129.3418 135.14453 L 162.3418 175.99805 C 162.96011 174.24163 163.08984 172.80664 163.08984 172.80664 L 169.89258 128.30078 L 132.61133 128.30078 z "
     id="path11-9" />
  <path
     style="fill:#ffffff;stroke-width:3.47000003"
     d="M 170.85938 70.146484 C 168.25662 70.2046 165.86523 71.134766 165.86523 71.134766 C 151.06297 77.245791 135.52079 83.518527 120 89.865234 L 120 111.80078 L 131.85938 103.75391 C 149.20937 91.955905 145.04681 101.67194 140.88281 105.83594 L 126.12305 119.89258 L 171.17773 119.89258 L 171.41797 118.32617 C 173.84697 99.935171 176.96941 82.932219 177.31641 78.074219 C 177.90197 71.437844 174.20577 70.071764 170.85938 70.146484 z "
     id="path11-9-8" />
</svg>
